HIERARCHY
ROOT SimulationBone
{
	OFFSET 0.000000 0.000000 0.000000
	CHANNELS 6 Xposition Yposition Zposition Zrotation Yrotation Xrotation 
	JOINT Hips
	{
		OFFSET 0.000000 0.000000 0.000000
		CHANNELS 6 Xposition Yposition Zposition Zrotation Yrotation Xrotation 
		JOINT RightUpLeg
		{
			OFFSET 0.103459 1.857827 10.548504
			CHANNELS 3 Zrotation Yrotation Xrotation
			JOINT RightLeg
			{
				OFFSET 43.500008 0.000000 0.000004
				CHANNELS 3 Zrotation Yrotation Xrotation
				JOINT RightFoot
				{
					OFFSET 42.372192 0.000011 0.000000
					CHANNELS 3 Zrotation Yrotation Xrotation
					JOINT RightToe
					{
						OFFSET 17.299973 -0.000013 -0.000010
						CHANNELS 3 Zrotation Yrotation Xrotation
						End Site
						{
							OFFSET 0.000000 0.000000 0.000000
						}
					}
				}
			}
		}
		JOINT LeftUpLeg
		{
			OFFSET 0.103454 1.857830 -10.548500
			CHANNELS 3 Zrotation Yrotation Xrotation
			JOINT LeftLeg
			{
				OFFSET 43.500038 -0.000038 0.000004
				CHANNELS 3 Zrotation Yrotation Xrotation
				JOINT LeftFoot
				{
					OFFSET 42.372253 0.000019 0.000024
					CHANNELS 3 Zrotation Yrotation Xrotation
					JOINT LeftToe
					{
						OFFSET 17.299988 -0.000007 0.000004
						CHANNELS 3 Zrotation Yrotation Xrotation
						End Site
						{
							OFFSET 0.000000 0.000000 0.000000
						}
					}
				}
			}
		}
		JOINT Spine
		{
			OFFSET 6.901963 -2.603744 0.000004
			CHANNELS 3 Zrotation Yrotation Xrotation
			JOINT Spine1
			{
				OFFSET 12.588104 0.000008 -0.000010
				CHANNELS 3 Zrotation Yrotation Xrotation
				JOINT Spine2
				{
					OFFSET 12.343202 -0.000005 0.000010
					CHANNELS 3 Zrotation Yrotation Xrotation
					JOINT Neck
					{
						OFFSET 25.832897 0.000000 0.000001
						CHANNELS 3 Zrotation Yrotation Xrotation
						JOINT Head
						{
							OFFSET 11.766611 -0.000006 -0.000000
							CHANNELS 3 Zrotation Yrotation Xrotation
							End Site
							{
								OFFSET 0.000000 0.000000 0.000000
							}
						}
					}
					JOINT RightShoulder
					{
						OFFSET 19.745899 -1.480366 6.000108
						CHANNELS 3 Zrotation Yrotation Xrotation
						JOINT RightArm
						{
							OFFSET 11.284111 -0.000018 -0.000015
							CHANNELS 3 Zrotation Yrotation Xrotation
							JOINT RightForeArm
							{
								OFFSET 33.000050 -0.000005 0.000028
								CHANNELS 3 Zrotation Yrotation Xrotation
								JOINT RightHand
								{
									OFFSET 25.200012 0.000000 0.000002
									CHANNELS 3 Zrotation Yrotation Xrotation
									End Site
									{
										OFFSET 0.000000 0.000000 0.000000
									}
								}
							}
						}
					}
					JOINT LeftShoulder
					{
						OFFSET 19.746111 -1.480335 -6.000074
						CHANNELS 3 Zrotation Yrotation Xrotation
						JOINT LeftArm
						{
							OFFSET 11.284151 0.000036 0.000001
							CHANNELS 3 Zrotation Yrotation Xrotation
							JOINT LeftForeArm
							{
								OFFSET 33.000092 -0.000035 0.000022
								CHANNELS 3 Zrotation Yrotation Xrotation
								JOINT LeftHand
								{
									OFFSET 25.199768 0.000178 0.000417
									CHANNELS 3 Zrotation Yrotation Xrotation
									End Site
									{
										OFFSET 0.000000 0.000000 0.000000
									}
								}
							}
						}
					}
				}
			}
		}
	}
}
MOTION
Frames: 6
Frame Time: 0.033333
-67.795986 0.000000 451.652343 180.000000 -78.354954 180.000000 -1.123705 85.983978 2.417442 90.853497 9.183708 -177.630616 167.455379 -12.270394 171.585717 -72.660973 0.780903 -1.048872 77.245464 -1.635933 -8.310857 21.454555 0.003107 0.000019 159.423077 -10.250705 -165.559469 -45.710795 -4.081456 -2.913723 84.854623 1.288150 -4.023454 21.454553 -0.003091 -0.000000 7.116605 3.027287 -1.894748 4.127648 6.119516 -3.686512 3.808290 6.097007 -3.723471 -0.402395 -3.644395 3.843529 16.835904 12.602123 2.463767 -161.205196 -75.145898 -20.669843 -24.119107 57.483856 29.691423 -44.646115 -15.778220 1.666240 -1.243588 -2.574327 20.252307 -179.499106 73.866850 1.969282 -11.693695 -56.548748 -29.834164 -23.496732 8.468668 -0.698634 0.873177 15.738783 -6.456921 
-67.809391 0.000000 453.671925 180.000000 -77.365415 180.000000 -1.139729 85.804237 2.749854 91.816040 9.500267 -176.039950 163.127908 -12.938899 173.308851 -77.247145 1.063179 -2.195980 76.994790 -0.200045 -6.039686 21.454562 0.003112 0.000020 161.262856 -10.928090 -166.333302 -46.055320 -4.160145 -2.490227 85.779478 1.144756 -3.444291 21.454553 -0.003089 -0.000001 7.241616 3.104308 -1.655766 4.389277 6.268594 -3.198295 4.069648 6.249036 -3.236190 0.199984 -5.119249 3.346185 16.401711 13.862105 1.629330 -159.868487 -74.764740 -22.043005 -24.796367 57.536667 27.879097 -45.146601 -16.203683 1.709063 -1.776688 -4.589619 19.582700 178.389501 73.232277 -0.207641 -15.581673 -56.323526 -27.372635 -21.687077 8.165384 -0.654482 1.562106 15.639670 -6.503018 
-67.785165 0.000000 455.699973 180.000000 -76.281747 180.000000 -1.155364 85.857002 3.035156 92.682085 9.831149 -174.500792 159.012500 -13.475401 175.465156 -78.758228 0.975101 -2.375216 78.465480 -0.122211 -6.543258 21.454557 0.003107 0.000019 163.379177 -11.782387 -167.477632 -45.517801 -4.222350 -2.030797 86.069748 0.973812 -2.751186 21.454555 -0.003085 -0.000002 7.330725 3.118004 -1.421649 4.580571 6.289350 -2.723717 4.260793 6.272655 -2.761753 0.894282 -6.431905 2.732559 16.269418 15.366638 0.740569 -159.026803 -74.612187 -22.907088 -24.745816 57.898660 26.243212 -44.929439 -16.493812 1.721711 -1.748435 -7.642271 17.090327 176.114297 73.128718 -2.543921 -19.595517 -56.589736 -24.209546 -20.604543 8.102408 -0.637016 2.464851 14.343559 -7.448537 
-67.719232 0.000000 457.738714 180.000000 -75.092367 180.000000 -1.037509 86.466339 3.241112 93.328396 9.506607 -173.320981 155.802557 -13.180300 177.060333 -76.827443 0.565334 -2.413626 79.353582 0.200497 -5.676849 21.454551 0.003112 0.000020 166.288742 -12.079106 -169.377531 -43.337940 -4.106407 -1.710823 85.428885 0.861368 -2.115754 21.454555 -0.003091 0.000001 7.365544 2.928718 -1.160459 4.667471 5.901456 -2.205585 4.347813 5.887898 -2.241287 1.661050 -7.723163 1.863375 16.339452 17.415857 -0.383734 -158.606910 -74.538216 -23.338259 -24.122550 58.232513 25.024346 -44.255364 -16.468264 1.700169 -1.022219 -10.536354 13.495287 173.966995 73.497753 -4.736256 -23.264147 -57.100723 -21.402797 -20.936902 8.375630 -0.658911 3.127983 12.567645 -8.677417 
-67.618842 0.000000 459.787048 180.000000 -73.793892 180.000000 -0.907182 87.309952 3.370972 93.629927 9.038231 -172.500431 153.243121 -12.736686 178.280300 -71.940081 0.097872 -2.327481 79.579770 0.186791 -5.651964 21.454560 0.003101 0.000016 169.400999 -12.017106 -171.663486 -40.198330 -3.739873 -1.565233 84.181631 0.831313 -1.619630 21.454555 -0.003084 -0.000002 7.327020 2.643737 -0.857194 4.608674 5.319235 -1.610945 4.289222 5.309264 -1.643120 2.646255 -9.173268 0.603634 16.458459 20.137590 -1.911714 -158.277886 -74.404379 -23.677452 -23.119760 58.320779 24.395170 -43.199458 -16.236125 1.654397 0.039513 -12.231821 9.971093 172.192511 74.184932 -6.534360 -26.259140 -57.583761 -19.477717 -22.857141 8.908026 -0.718512 3.052650 10.983550 -10.075209 
-67.491061 0.000000 461.843674 180.000000 -72.390507 180.000000 -0.789181 88.215782 3.422035 93.517092 8.563638 -172.062271 151.424023 -12.397799 179.069119 -64.828508 -0.109041 -1.338233 80.010707 -0.472682 -5.623587 21.454555 0.003106 0.000019 172.363662 -11.567400 -174.117095 -36.568379 -3.145040 -1.621001 82.524367 0.910540 -1.251596 21.454553 -0.003105 0.000001 7.191586 2.300916 -0.518506 4.354647 4.619544 -0.951603 4.035485 4.613592 -0.979534 4.010402 -10.801321 -1.126890 16.539008 23.362669 -3.901125 -157.841615 -74.193804 -24.128079 -21.730962 58.257381 24.406445 -41.825394 -16.029260 1.602215 0.901760 -12.383847 7.593304 170.776094 75.037688 -7.957018 -28.393238 -57.919144 -18.404237 -26.148404 9.583031 -0.811537 2.182336 10.028350 -11.856232 
